<?xml version="1.0" ?><svg viewBox="0 0 64 64" xmlns="http://www.w3.org/2000/svg"><g data-name="06-gmail" id="_06-gmail"><polygon points="57 21 57 63 7 63 7 21 7.06 20.91 32 37 56.94 20.91 57 21" style="fill:#ececec"/><path d="M63,7V9L32,29,1,9V7A6,6,0,0,1,7,1H57A6,6,0,0,1,63,7Z" style="fill:#ececec"/><path d="M7.06,20.91,7,21V63a6,6,0,0,1-6-6V17Z" style="fill:#a83229"/><path d="M57,63V21l-.06-.09L63,17V57A6,6,0,0,1,57,63Z" style="fill:#a83229"/><polygon points="63 9 63 17 56.94 20.91 32 37 7.06 20.91 1 17 1 9 32 29 63 9" style="fill:#d73d3f"/><polygon points="57 21 56.94 20.91 32 37 57 53.129 57 21" style="fill:#cbccce"/><path d="M57,1H7A6,6,0,0,0,1,7V9l.283.182A6.006,6.006,0,0,1,7,5H57a6.006,6.006,0,0,1,5.717,4.182L63,9V7A6,6,0,0,0,57,1Z" style="fill:#f7f7f7"/><path d="M63,11V9l-.283.182A5.972,5.972,0,0,1,63,11Z" style="fill:#ff6676"/><path d="M1,9v2a5.972,5.972,0,0,1,.283-1.818Z" style="fill:#ff6676"/><rect height="4" style="fill:#cfcfcf" width="50" x="7" y="59"/><path d="M1,53v4a6,6,0,0,0,6,6V59A6,6,0,0,1,1,53Z" style="fill:#91323c"/><path d="M57,59v4a6,6,0,0,0,6-6V53A6,6,0,0,1,57,59Z" style="fill:#91323c"/></g></svg>